<?xml version="1.0" encoding="UTF-8" standalone="no"?>
<!DOCTYPE svg PUBLIC "-//W3C//DTD SVG 1.1//EN" "http://www.w3.org/Graphics/SVG/1.1/DTD/svg11.dtd">
<svg width="100%" height="100%" viewBox="0 0 1024 1024" version="1.1" xmlns="http://www.w3.org/2000/svg" xmlns:xlink="http://www.w3.org/1999/xlink" xml:space="preserve" xmlns:serif="http://www.serif.com/" style="fill-rule:evenodd;clip-rule:evenodd;stroke-linecap:round;stroke-linejoin:round;stroke-miterlimit:1.5;">
    <g transform="matrix(1,0,0,1,-1123.15,0)">
        <g id="JustLines" transform="matrix(1.20262,0,0,1.39573,1022.68,-403.117)">
            <path d="M935.014,350.167L935.014,961.143C935.014,995.001 903.112,1022.49 863.818,1022.49L154.735,1022.49C115.441,1022.49 83.54,995.001 83.54,961.143L83.54,350.167C83.54,316.31 115.441,288.822 154.735,288.822L863.818,288.822C903.112,288.822 935.014,316.31 935.014,350.167Z" style="fill:none;"/>
            <clipPath id="_clip1">
                <path d="M935.014,350.167L935.014,961.143C935.014,995.001 903.112,1022.49 863.818,1022.49L154.735,1022.49C115.441,1022.49 83.54,995.001 83.54,961.143L83.54,350.167C83.54,316.31 115.441,288.822 154.735,288.822L863.818,288.822C903.112,288.822 935.014,316.31 935.014,350.167Z"/>
            </clipPath>
            <g clip-path="url(#_clip1)">
                <g id="LOGO" transform="matrix(1,0,0,1,0.583348,0.475269)">
                    <g transform="matrix(0.814208,0,0,0.701556,71.771,178.687)">
                        <g transform="matrix(1.14,0,0,1,-58.7847,0)">
                            <g transform="matrix(288,0,0,288,626.099,818.487)">
                            </g>
                            <text x="419.891px" y="818.487px" style="font-family:'BRFirma-Medium', 'BR Firma';font-weight:500;font-size:288px;fill:white;">A</text>
                        </g>
                    </g>
                    <g transform="matrix(0.814208,0,0,0.701556,98.8462,178.996)">
                        <path d="M489.91,765.055L501.132,739.999L461.495,739.999L450.332,765.055L489.91,765.055Z" style="fill:rgb(249,124,7);fill-rule:nonzero;"/>
                    </g>
                    <g transform="matrix(8.86207,0,0,7.63593,-1380.74,-7958.51)">
                        <g transform="matrix(12.1431,0,0,12.1431,247.206,1157.41)">
                        </g>
                        <text x="179.108px" y="1157.41px" style="font-family:'BRFirma-Bold', 'BR Firma';font-weight:700;font-size:12.143px;fill:white;">A<tspan x="187.754px 194.894px 202.459px 205.58px 212.465px 220.006px 226.891px 234.031px 240.066px " y="1157.41px 1157.41px 1157.41px 1157.41px 1157.41px 1157.41px 1157.41px 1157.41px 1157.41px ">ngleSense</tspan></text>
                    </g>
                    <g transform="matrix(0.766761,0.731373,-0.848813,0.660674,1058.1,-401.597)">
                        <path d="M376.42,843.3L435.708,959.54C377.272,989.345 340.486,1049.4 340.486,1115C340.486,1172.58 368.89,1226.46 416.399,1258.99L342.675,1366.65C259.642,1309.79 210,1215.63 210,1115C210,1000.35 274.291,895.391 376.42,843.3Z" style="fill:rgb(249,124,7);"/>
                    </g>
                    <g transform="matrix(0.766761,0.731373,-0.848813,0.660674,1058.1,-401.597)">
                        <path d="M330.373,1357.79C255.82,1301.09 210,1211.9 210,1115C210,946.666 346.666,810 515,810C600.63,810 680.949,845.877 737.832,906.73L723.293,922.825C670.37,865.468 595.191,831.605 515,831.605C358.59,831.605 231.605,958.59 231.605,1115C231.605,1205.67 274.779,1289.07 344.912,1341.7L330.373,1357.79ZM649.81,1004.17C617.048,964.314 567.787,940.486 515,940.486C418.683,940.486 340.486,1018.68 340.486,1115C340.486,1174.26 370.435,1228.48 418.396,1260.35L403.77,1276.54C351.43,1240.51 318.88,1180.49 318.88,1115C318.88,1006.76 406.759,918.88 515,918.88C573.224,918.88 627.63,944.676 664.436,987.98L649.81,1004.17Z" style="fill:white;"/>
                    </g>
                    <g transform="matrix(1.07613,0,0,0.927241,-48.52,-6.09759)">
                        <path d="M395.544,818.5L177.341,818.5C172.65,818.5 168.841,814.691 168.841,810C168.841,805.309 172.65,801.5 177.341,801.5L395.544,801.5C400.235,801.5 404.044,805.309 404.044,810C404.044,814.691 400.235,818.5 395.544,818.5Z" style="fill:white;"/>
                    </g>
                    <g transform="matrix(1.07613,0,0,0.927241,-48.52,-6.09759)">
                        <path d="M640.041,801.5L858.244,801.5C862.936,801.5 866.744,805.309 866.744,810C866.744,814.691 862.936,818.5 858.244,818.5L640.041,818.5C635.35,818.5 631.541,814.691 631.541,810C631.541,805.309 635.35,801.5 640.041,801.5Z" style="fill:white;"/>
                    </g>
                    <g transform="matrix(1.07613,0,0,0.758783,-48.52,81.0019)">
                        <path d="M518.279,450.01L518.279,531.15" style="fill:none;stroke:white;stroke-width:14.38px;"/>
                    </g>
                    <g transform="matrix(1.07613,0,0,0.758783,-48.52,81.0019)">
                        <path d="M518.279,450.01L518.279,531.15" style="fill:none;stroke:white;stroke-width:14.38px;"/>
                    </g>
                    <g transform="matrix(1.01069,0.318412,-0.302404,0.712641,238.357,-45.427)">
                        <path d="M518.279,450.01L518.279,531.15" style="fill:none;stroke:white;stroke-width:14.38px;"/>
                    </g>
                    <g transform="matrix(0.822334,0.598099,-0.568029,0.579829,558.176,-79.2851)">
                        <path d="M518.279,450.01L518.279,531.15" style="fill:none;stroke:white;stroke-width:14.38px;"/>
                    </g>
                    <g transform="matrix(0.533963,0.805045,-0.764571,0.376498,870.964,-15.5273)">
                        <path d="M518.279,450.01L518.279,531.15" style="fill:none;stroke:white;stroke-width:14.38px;"/>
                    </g>
                    <g transform="matrix(0.180652,0.914083,-0.868127,0.127378,1138.55,136.35)">
                        <path d="M518.279,450.01L518.279,531.15" style="fill:none;stroke:white;stroke-width:14.38px;"/>
                    </g>
                    <g transform="matrix(1.01096,-0.317776,0.3018,0.712831,-267.2,284.137)">
                        <path d="M518.279,450.01L518.279,531.15" style="fill:none;stroke:white;stroke-width:14.38px;"/>
                    </g>
                    <g transform="matrix(0.823346,-0.597064,0.567047,0.580543,-391.842,539.546)">
                        <path d="M518.279,450.01L518.279,531.15" style="fill:none;stroke:white;stroke-width:14.38px;"/>
                    </g>
                    <g transform="matrix(0.536007,-0.804036,0.763613,0.377939,-407.348,816.294)">
                        <path d="M518.279,450.01L518.279,531.15" style="fill:none;stroke:white;stroke-width:14.38px;"/>
                    </g>
                    <g transform="matrix(0.183747,-0.913624,0.867692,0.12956,-311.841,1080.86)">
                        <path d="M518.279,450.01L518.279,531.15" style="fill:none;stroke:white;stroke-width:14.38px;"/>
                    </g>
                    <g transform="matrix(1.07613,0,0,0.927241,1076,310.863)">
                        <g transform="matrix(25,0,0,25,-232.131,568.914)">
                        </g>
                        <text x="-255.756px" y="568.914px" style="font-family:'BRFirma-Bold', 'BR Firma';font-weight:700;font-size:25px;fill:white;">™</text>
                    </g>
                    <g id="tm">
                    </g>
                </g>
            </g>
        </g>
        <g id="Lines">
        </g>
    </g>
</svg>
